<svg width="20" height="20" viewBox="0 0 20 20" fill="none" xmlns="http://www.w3.org/2000/svg">
<path d="M19.3932 10.2193C19.4049 9.53249 19.3371 8.84658 19.1913 8.17529H10.1848V11.8859H15.4706C15.3744 12.5295 15.1515 13.1476 14.8149 13.7044C14.4782 14.2613 14.0344 14.7459 13.5093 15.1301L13.4917 15.2555L16.3396 17.5566L16.5365 17.5767C17.4875 16.6087 18.2312 15.4571 18.7224 14.1921C19.2135 12.9272 19.4418 11.5754 19.3932 10.2193Z" fill="#4285F4"/>
<path d="M10.1848 19.9969C12.5385 20.0587 14.8213 19.1884 16.5365 17.5754L13.5092 15.1313C12.5379 15.8148 11.372 16.1666 10.1848 16.1345C8.95191 16.1105 7.75871 15.6945 6.77813 14.9469C5.79754 14.1992 5.08052 13.1587 4.73098 11.9762L4.61812 11.9862L1.65734 14.3689L1.61847 14.4817C2.38043 16.1156 3.58919 17.5006 5.10505 18.4765C6.62091 19.4525 8.382 19.9796 10.1848 19.9969Z" fill="#34A853"/>
<path d="M4.73097 11.9749C4.52116 11.3366 4.41324 10.6693 4.41119 9.99736C4.41487 9.32862 4.51843 8.66419 4.71843 8.02604V7.89312L1.72128 5.46033L1.62347 5.50923C0.950023 6.90957 0.600342 8.44351 0.600342 9.99736C0.600342 11.5512 0.950023 13.0851 1.62347 14.4855L4.73097 11.9749Z" fill="#FBBC05"/>
<path d="M10.1848 3.86654C10.8705 3.85818 11.551 3.98538 12.1874 4.24083C12.8238 4.49628 13.4034 4.87494 13.893 5.35506L16.6004 2.59622C15.7548 1.76226 14.7526 1.10362 13.6516 0.658151C12.5506 0.212677 11.3725 -0.0108528 10.1848 0.000405027C8.38212 0.0168047 6.62088 0.542926 5.10458 1.51797C3.58829 2.49302 2.37883 3.87719 1.61597 5.51055L4.7172 8.01859C5.07167 6.83684 5.79207 5.79809 6.77464 5.05193C7.75721 4.30578 8.95125 3.89072 10.1848 3.86654Z" fill="#EB4335"/>
</svg>
