<svg width="18" height="18" viewBox="0 0 18 18" fill="none" xmlns="http://www.w3.org/2000/svg">
<path d="M10.8976 7.10256L7.10256 10.8976C6.61506 10.4101 6.31506 9.74256 6.31506 9.00006C6.31506 7.51506 7.51506 6.31506 9.00006 6.31506C9.74256 6.31506 10.4101 6.61506 10.8976 7.10256Z" stroke="#323B3A" stroke-width="1.125" stroke-linecap="round" stroke-linejoin="round"/>
<path d="M4.2 13.32C3.45 12.675 2.7675 11.88 2.1675 10.9425C1.4925 9.88503 1.4925 8.10753 2.1675 7.05003C3.0525 5.66253 4.1325 4.57503 5.34 3.84753" stroke="#323B3A" stroke-width="1.125" stroke-linecap="round" stroke-linejoin="round"/>
<path d="M13.365 4.32749C12.0525 3.33749 10.5525 2.79749 9 2.79749" stroke="#323B3A" stroke-width="1.125" stroke-linecap="round" stroke-linejoin="round"/>
<path d="M6.31506 14.6475C7.17006 15.0075 8.07756 15.2025 9.00006 15.2025C11.6476 15.2025 14.1151 13.6425 15.8326 10.9425C16.5076 9.88501 16.5076 8.10751 15.8326 7.05001C15.5851 6.66001 15.3151 6.29251 15.0376 5.94751" stroke="#323B3A" stroke-width="1.125" stroke-linecap="round" stroke-linejoin="round"/>
<path d="M11.6325 9.52502C11.4375 10.5825 10.575 11.445 9.51746 11.64" stroke="#323B3A" stroke-width="1.125" stroke-linecap="round" stroke-linejoin="round"/>
<path d="M7.1025 10.8975L1.5 16.5" stroke="#323B3A" stroke-width="1.125" stroke-linecap="round" stroke-linejoin="round"/>
<path d="M16.5 1.5L10.8975 7.1025" stroke="#323B3A" stroke-width="1.125" stroke-linecap="round" stroke-linejoin="round"/>
</svg>
