<svg width="18" height="20" viewBox="0 0 18 20" fill="none" xmlns="http://www.w3.org/2000/svg">
<path d="M14.6271 19.1976C13.5383 20.253 12.3496 20.0864 11.2053 19.5864C9.99432 19.0754 8.88335 19.0532 7.60574 19.5864C6.00594 20.2752 5.1616 20.0752 4.20617 19.1976C-1.21537 13.6094 -0.415473 5.09936 5.73931 4.78828C7.23912 4.86605 8.28343 5.6104 9.1611 5.67706C10.472 5.41043 11.7274 4.64386 13.1273 4.74385C14.8048 4.87716 16.0713 5.54374 16.9046 6.74359C13.4383 8.82111 14.2605 13.3872 17.4378 14.6648C16.8046 16.3313 15.9825 17.9866 14.616 19.2087L14.6271 19.1976ZM9.05 4.72163C8.88335 2.24416 10.8942 0.199975 13.205 0C13.5272 2.8663 10.6054 4.99937 9.05 4.72163Z" fill="#9A9898"/>
</svg>
