<svg width="74" height="74" viewBox="0 0 74 74" fill="none" xmlns="http://www.w3.org/2000/svg">
<g clip-path="url(#clip0_87_2254)">
<path fill-rule="evenodd" clip-rule="evenodd" d="M50.1623 41.9954H23.8432C21.7212 41.9954 19.686 42.8384 18.1855 44.3389C16.685 45.8394 15.8421 47.8745 15.8421 49.9965C15.8421 52.1186 16.685 54.1537 18.1855 55.6542C19.686 57.1547 21.7212 57.9977 23.8432 57.9977H50.1623C52.2843 57.9977 54.3195 57.1547 55.82 55.6542C57.3204 54.1537 58.1634 52.1186 58.1634 49.9965C58.1634 47.8745 57.3204 45.8394 55.82 44.3389C54.3195 42.8384 52.2843 41.9954 50.1623 41.9954ZM28.9307 50.4794L27.1496 50.8775L28.3622 52.7439C28.4578 52.8908 28.5235 53.055 28.5556 53.2273C28.5877 53.3995 28.5855 53.5764 28.5492 53.7478C28.513 53.9192 28.4433 54.0818 28.3442 54.2262C28.2451 54.3707 28.1185 54.4943 27.9716 54.5898C27.8248 54.6854 27.6606 54.7511 27.4883 54.7832C27.3161 54.8152 27.1392 54.8131 26.9678 54.7768C26.7964 54.7405 26.6338 54.6709 26.4893 54.5718C26.3449 54.4727 26.2213 54.3461 26.1258 54.1992L24.984 52.4465L23.8477 54.1992C23.6548 54.4957 23.3521 54.7035 23.0061 54.7768C22.66 54.8501 22.2991 54.7829 22.0026 54.59C21.7061 54.3972 21.4983 54.0945 21.425 53.7484C21.3517 53.4024 21.4189 53.0415 21.6118 52.745L22.8245 50.8785L21.0433 50.4804C20.8724 50.4424 20.7106 50.371 20.5672 50.2704C20.4239 50.1697 20.3018 50.0418 20.2079 49.894C20.114 49.7461 20.0502 49.5812 20.0201 49.4086C19.99 49.2361 19.9943 49.0593 20.0325 48.8884C20.0708 48.7175 20.1424 48.5558 20.2433 48.4126C20.3441 48.2694 20.4721 48.1474 20.6201 48.0538C20.7681 47.9601 20.9331 47.8965 21.1057 47.8666C21.2783 47.8368 21.4551 47.8412 21.6259 47.8797L23.6494 48.3346V46.5246C23.6494 46.1697 23.7904 45.8293 24.0413 45.5784C24.2923 45.3274 24.6327 45.1864 24.9876 45.1864C25.3425 45.1864 25.6829 45.3274 25.9338 45.5784C26.1848 45.8293 26.3258 46.1697 26.3258 46.5246V48.3343L28.3492 47.8795C28.5201 47.8409 28.6969 47.8365 28.8694 47.8663C29.042 47.8962 29.207 47.9598 29.355 48.0535C29.503 48.1471 29.6311 48.2691 29.7319 48.4123C29.8327 48.5555 29.9043 48.7172 29.9426 48.8881C29.9809 49.059 29.9851 49.2358 29.955 49.4083C29.9249 49.5809 29.8611 49.7458 29.7673 49.8937C29.6734 50.0415 29.5513 50.1694 29.4079 50.2701C29.2646 50.3707 29.1028 50.4421 28.9318 50.4801L28.9307 50.4794ZM40.949 50.4794L39.1631 50.8775L40.3758 52.7439C40.4714 52.8908 40.5371 53.055 40.5692 53.2273C40.6012 53.3995 40.5991 53.5764 40.5628 53.7478C40.5265 53.9192 40.4569 54.0818 40.3578 54.2262C40.2587 54.3707 40.1321 54.4943 39.9852 54.5898C39.8384 54.6854 39.6741 54.7511 39.5019 54.7832C39.3297 54.8152 39.1528 54.8131 38.9814 54.7768C38.81 54.7405 38.6474 54.6709 38.5029 54.5718C38.3584 54.4727 38.2349 54.3461 38.1393 54.1992L37.0023 52.4465L35.8607 54.1992C35.6678 54.4957 35.3651 54.7035 35.0191 54.7768C34.673 54.8501 34.3121 54.7829 34.0156 54.59C33.7191 54.3972 33.5113 54.0945 33.438 53.7484C33.3647 53.4024 33.4319 53.0415 33.6248 52.745L34.8375 50.8785L33.0563 50.4804C32.8854 50.4424 32.7236 50.371 32.5802 50.2704C32.4369 50.1697 32.3148 50.0418 32.2209 49.894C32.127 49.7461 32.0632 49.5812 32.0331 49.4086C32.003 49.2361 32.0073 49.0593 32.0455 48.8884C32.0838 48.7175 32.1554 48.5558 32.2563 48.4126C32.3571 48.2694 32.4852 48.1474 32.6331 48.0538C32.7811 47.9601 32.9461 47.8965 33.1187 47.8666C33.2913 47.8368 33.4681 47.8412 33.6389 47.8797L35.6664 48.3346V46.5246C35.6664 46.1703 35.8072 45.8305 36.0577 45.58C36.3082 45.3295 36.648 45.1887 37.0023 45.1887C37.3566 45.1887 37.6964 45.3295 37.9469 45.58C38.1975 45.8305 38.3382 46.1703 38.3382 46.5246V48.3343L40.3617 47.8795C40.7052 47.8052 41.0641 47.8695 41.3604 48.0586C41.6567 48.2476 41.8664 48.546 41.9438 48.8888C42.0213 49.2316 41.9602 49.5911 41.7739 49.8892C41.5876 50.1872 41.2911 50.3996 40.949 50.4801V50.4794ZM52.9626 50.4794L51.1766 50.8775L52.3942 52.7439C52.5872 53.0405 52.6544 53.4016 52.5811 53.7478C52.5079 54.094 52.3001 54.3969 52.0035 54.5899C51.7069 54.7829 51.3458 54.8501 50.9996 54.7769C50.6534 54.7036 50.3505 54.4958 50.1576 54.1992L49.0158 52.4465L47.879 54.1992C47.6861 54.4957 47.3832 54.7035 47.0371 54.7767C46.691 54.8499 46.33 54.7827 46.0335 54.5897C45.737 54.3968 45.5292 54.094 45.456 53.7479C45.3828 53.4018 45.45 53.0407 45.643 52.7442L46.8557 50.8778L45.0699 50.4797C44.7278 50.3992 44.4314 50.1868 44.2451 49.8887C44.0588 49.5907 43.9977 49.2312 44.0751 48.8884C44.1525 48.5455 44.3622 48.2472 44.6585 48.0581C44.9548 47.8691 45.3138 47.8047 45.6573 47.879L47.6807 48.3339V46.5246C47.6807 46.1703 47.8215 45.8305 48.072 45.58C48.3225 45.3295 48.6623 45.1887 49.0166 45.1887C49.3709 45.1887 49.7107 45.3295 49.9612 45.58C50.2118 45.8305 50.3525 46.1703 50.3525 46.5246V48.3343L52.376 47.8795C52.5474 47.8391 52.7251 47.8331 52.8988 47.8618C53.0726 47.8905 53.2389 47.9533 53.3882 48.0467C53.5376 48.14 53.6669 48.262 53.7688 48.4056C53.8707 48.5493 53.9432 48.7116 53.982 48.8834C54.0208 49.0552 54.0251 49.2329 53.9949 49.4064C53.9646 49.5799 53.9002 49.7456 53.8055 49.8941C53.7108 50.0426 53.5876 50.1708 53.443 50.2714C53.2985 50.372 53.1355 50.4429 52.9633 50.4801L52.9626 50.4794ZM61.4466 25.9976H54.1511V17.1534C54.1511 12.6047 52.3441 8.24221 49.1277 5.02576C45.9112 1.8093 41.5488 0.00231934 37 0.00231934C32.4513 0.00231934 28.0888 1.8093 24.8723 5.02576C21.6559 8.24221 19.8489 12.6047 19.8489 17.1534V25.9979H12.5537C11.1557 26.0004 9.8156 26.5566 8.82661 27.5447C7.83762 28.5328 7.28025 29.8723 7.27643 31.2704V63.7816C7.28485 66.4891 8.36413 69.0833 10.2786 70.9978C12.1931 72.9123 14.7873 73.9916 17.4948 74H56.5103C59.2172 73.9913 61.8107 72.9118 63.7243 70.9972C65.638 69.0826 66.7162 66.4886 66.7236 63.7816V31.2704C66.7206 29.8721 66.1634 28.5321 65.1743 27.5438C64.1851 26.5555 62.8446 25.9996 61.4463 25.9979L61.4466 25.9976ZM25.4953 17.1534C25.5061 14.1087 26.7232 11.1924 28.8799 9.04331C31.0367 6.8942 33.9572 5.68748 37.002 5.68748C40.0467 5.68748 42.9673 6.8942 45.124 9.04331C47.2807 11.1924 48.4978 14.1087 48.5086 17.1534V25.9979H25.4953V17.1534ZM57.704 57.5379C56.7145 58.5301 55.5391 59.3174 54.245 59.8547C52.9509 60.392 51.5635 60.6688 50.1623 60.6692H23.8432C21.0125 60.6692 18.2978 59.5447 16.2963 57.5431C14.2947 55.5416 13.1703 52.8269 13.1703 49.9963C13.1703 47.1656 14.2947 44.4509 16.2963 42.4494C18.2978 40.4478 21.0125 39.3233 23.8432 39.3233H50.1623C52.2733 39.3219 54.3372 39.9469 56.0927 41.1192C57.8482 42.2915 59.2163 43.9584 60.0239 45.9088C60.8314 47.8592 61.0421 50.0053 60.6291 52.0755C60.2161 54.1456 59.1981 56.0467 57.704 57.5379Z" fill="#FFAB00"/>
</g>
<defs>
<clipPath id="clip0_87_2254">
<rect width="74" height="74" fill="white"/>
</clipPath>
</defs>
</svg>
