<svg width="19" height="22" viewBox="0 0 19 22" fill="none" xmlns="http://www.w3.org/2000/svg">
<path d="M1.8833 1.83325H3.22849C4.06343 1.83325 4.72055 2.68575 4.65097 3.66659L4.0093 12.7966C3.90107 14.2907 4.89836 15.5741 6.16623 15.5741H14.3997C15.5129 15.5741 16.487 14.4924 16.5721 13.1816L16.9895 6.30659C17.0823 4.78492 16.1082 3.54741 14.8171 3.54741H4.83652" stroke="#323B3A" stroke-width="1.2" stroke-miterlimit="10" stroke-linecap="round" stroke-linejoin="round"/>
<path d="M12.9 20.1667C13.4337 20.1667 13.8663 19.6537 13.8663 19.0208C13.8663 18.388 13.4337 17.875 12.9 17.875C12.3663 17.875 11.9336 18.388 11.9336 19.0208C11.9336 19.6537 12.3663 20.1667 12.9 20.1667Z" stroke="#323B3A" stroke-width="1.2" stroke-miterlimit="10" stroke-linecap="round" stroke-linejoin="round"/>
<path d="M6.71514 20.1667C7.24885 20.1667 7.68151 19.6537 7.68151 19.0208C7.68151 18.388 7.24885 17.875 6.71514 17.875C6.18144 17.875 5.74878 18.388 5.74878 19.0208C5.74878 19.6537 6.18144 20.1667 6.71514 20.1667Z" stroke="#323B3A" stroke-width="1.2" stroke-miterlimit="10" stroke-linecap="round" stroke-linejoin="round"/>
<path d="M7.29492 7.33325H16.572" stroke="#323B3A" stroke-width="1.2" stroke-miterlimit="10" stroke-linecap="round" stroke-linejoin="round"/>
</svg>
