<svg width="18" height="14" viewBox="0 0 18 14" fill="none" xmlns="http://www.w3.org/2000/svg">
<path fill-rule="evenodd" clip-rule="evenodd" d="M5.24878 1.43677C5.24878 1.02255 5.58457 0.686768 5.99878 0.686768H17.0034C17.4176 0.686768 17.7534 1.02255 17.7534 1.43677C17.7534 1.85098 17.4176 2.18677 17.0034 2.18677H5.99878C5.58457 2.18677 5.24878 1.85098 5.24878 1.43677Z" fill="black"/>
<path fill-rule="evenodd" clip-rule="evenodd" d="M5.24878 7C5.24878 6.58579 5.58457 6.25 5.99878 6.25H17.0034C17.4176 6.25 17.7534 6.58579 17.7534 7C17.7534 7.41421 17.4176 7.75 17.0034 7.75H5.99878C5.58457 7.75 5.24878 7.41421 5.24878 7Z" fill="black"/>
<path fill-rule="evenodd" clip-rule="evenodd" d="M5.24878 12.5635C5.24878 12.1493 5.58457 11.8135 5.99878 11.8135H17.0034C17.4176 11.8135 17.7534 12.1493 17.7534 12.5635C17.7534 12.9777 17.4176 13.3135 17.0034 13.3135H5.99878C5.58457 13.3135 5.24878 12.9777 5.24878 12.5635Z" fill="black"/>
<path fill-rule="evenodd" clip-rule="evenodd" d="M0.246704 1.43673C0.246704 0.746261 0.806441 0.186523 1.49691 0.186523C2.18738 0.186523 2.74712 0.746261 2.74712 1.43673C2.74712 2.1272 2.18738 2.68694 1.49691 2.68694C0.806441 2.68694 0.246704 2.1272 0.246704 1.43673Z" fill="black"/>
<path fill-rule="evenodd" clip-rule="evenodd" d="M0.246704 6.99996C0.246704 6.30949 0.806442 5.74976 1.49691 5.74976C2.18738 5.74976 2.74712 6.30949 2.74712 6.99996C2.74712 7.69044 2.18738 8.25017 1.49691 8.25017C0.806442 8.25017 0.246704 7.69044 0.246704 6.99996Z" fill="black"/>
<path fill-rule="evenodd" clip-rule="evenodd" d="M0.246704 12.5634C0.246704 11.873 0.806442 11.3132 1.49691 11.3132C2.18738 11.3132 2.74712 11.873 2.74712 12.5634C2.74712 13.2539 2.18738 13.8136 1.49691 13.8136C0.806442 13.8136 0.246704 13.2539 0.246704 12.5634Z" fill="black"/>
</svg>
