<svg width="16" height="16" viewBox="0 0 16 16" fill="none" xmlns="http://www.w3.org/2000/svg">
<path d="M6.00004 14.6666H10C13.3334 14.6666 14.6667 13.3333 14.6667 9.99992V5.99992C14.6667 2.66659 13.3334 1.33325 10 1.33325H6.00004C2.66671 1.33325 1.33337 2.66659 1.33337 5.99992V9.99992C1.33337 13.3333 2.66671 14.6666 6.00004 14.6666Z" stroke="#1E4841" stroke-width="1.2" stroke-linecap="round" stroke-linejoin="round"/>
<path d="M4.46667 6.17334L8 8.22001L11.5067 6.18667" stroke="#1E4841" stroke-width="1.2" stroke-linecap="round" stroke-linejoin="round"/>
<path d="M8 11.8467V8.21338" stroke="#1E4841" stroke-width="1.2" stroke-linecap="round" stroke-linejoin="round"/>
<path d="M7.17338 4.1934L5.04004 5.38007C4.56004 5.64673 4.16003 6.32007 4.16003 6.8734V9.1334C4.16003 9.68673 4.55337 10.3601 5.04004 10.6267L7.17338 11.8134C7.62671 12.0667 8.37337 12.0667 8.83337 11.8134L10.9667 10.6267C11.4467 10.3601 11.8467 9.68673 11.8467 9.1334V6.86674C11.8467 6.3134 11.4534 5.64007 10.9667 5.3734L8.83337 4.18673C8.37337 3.9334 7.62671 3.9334 7.17338 4.1934Z" stroke="#1E4841" stroke-width="1.2" stroke-linecap="round" stroke-linejoin="round"/>
</svg>
