<svg width="46" height="46" viewBox="0 0 46 46" fill="none" xmlns="http://www.w3.org/2000/svg">
<path d="M14.2991 37.0685H10.619C4.984 36.666 2.4541 32.3343 2.4541 28.4818C2.4541 24.6293 4.98403 20.2785 10.5232 19.8951C11.309 19.8185 11.999 20.4318 12.0565 21.2368C12.114 22.0226 11.5199 22.7126 10.7149 22.7701C6.9966 23.0385 5.3291 25.8368 5.3291 28.501C5.3291 31.1651 6.9966 33.9635 10.7149 34.2318H14.2991C15.0849 34.2318 15.7366 34.8835 15.7366 35.6693C15.7366 36.4551 15.0849 37.0685 14.2991 37.0685Z" fill="#292D32"/>
<path d="M31.9502 37.0687C31.9119 37.0687 31.8927 37.0687 31.8544 37.0687C31.0686 37.0687 30.3403 36.4171 30.3403 35.6312C30.3403 34.8071 30.9536 34.1937 31.7586 34.1937C34.1161 34.1937 36.2244 33.3696 37.8728 31.8937C40.8628 29.2871 41.0544 25.5304 40.2494 22.8854C39.4444 20.2596 37.2019 17.2504 33.2919 16.7712C32.6594 16.6946 32.161 16.2154 32.046 15.5829C31.2794 10.9829 28.8069 7.80125 25.0503 6.65125C21.1786 5.44375 16.6552 6.63208 13.8377 9.58374C11.0969 12.4396 10.4644 16.4454 12.0552 20.8538C12.3236 21.6013 11.9403 22.4254 11.1928 22.6937C10.4453 22.9621 9.6211 22.5787 9.35277 21.8312C7.41694 16.4262 8.29862 11.2512 11.7678 7.60958C15.3136 3.89125 21.0061 2.4154 25.8936 3.9104C30.3786 5.2904 33.541 8.98957 34.691 14.1262C38.601 15.0079 41.7444 17.9788 42.9902 22.0804C44.3511 26.5463 43.1244 31.1463 39.7703 34.0596C37.6428 35.9762 34.8636 37.0687 31.9502 37.0687Z" fill="#292D32"/>
<path d="M22.9993 42.7038C19.1468 42.7038 15.5435 40.6529 13.5694 37.3371C13.3585 37.0113 13.1477 36.6279 12.9752 36.2063C12.3236 34.8454 11.9785 33.2929 11.9785 31.6829C11.9785 25.6071 16.9235 20.6621 22.9993 20.6621C29.0752 20.6621 34.0202 25.6071 34.0202 31.6829C34.0202 33.3121 33.6752 34.8454 32.9852 36.2638C32.8319 36.6279 32.6211 37.0113 32.3911 37.3754C30.4552 40.6529 26.8518 42.7038 22.9993 42.7038ZM22.9993 23.5371C18.5143 23.5371 14.8535 27.1979 14.8535 31.6829C14.8535 32.8713 15.1027 33.9829 15.5819 34.9988C15.7352 35.3246 15.8693 35.5929 16.0227 35.8421C17.4793 38.3146 20.1435 39.8288 22.9802 39.8288C25.8168 39.8288 28.481 38.3146 29.9185 35.8804C30.091 35.5929 30.2444 35.3246 30.3594 35.0563C30.8769 34.0021 31.126 32.8904 31.126 31.7021C31.1452 27.1979 27.4843 23.5371 22.9993 23.5371Z" fill="#292D32"/>
<path d="M21.9074 35.0173C21.5432 35.0173 21.1791 34.8831 20.8916 34.5956L18.994 32.6981C18.4382 32.1423 18.4382 31.2223 18.994 30.6664C19.5499 30.1106 20.4699 30.1106 21.0257 30.6664L21.9458 31.5864L25.0124 28.7498C25.6066 28.2131 26.5074 28.2514 27.044 28.8264C27.5807 29.4014 27.5424 30.3215 26.9674 30.8581L22.8849 34.634C22.5974 34.8831 22.2524 35.0173 21.9074 35.0173Z" fill="#292D32"/>
</svg>
