<svg width="24" height="24" viewBox="0 0 24 24" fill="none" xmlns="http://www.w3.org/2000/svg">
<path fill-rule="evenodd" clip-rule="evenodd" d="M2.25 12C2.25 17.384 6.6139 21.7487 11.9976 21.75H12C17.3848 21.75 21.75 17.3848 21.75 12C21.75 6.61522 17.3848 2.25 12 2.25C6.61522 2.25 2.25 6.61522 2.25 12ZM12 3.75C7.44365 3.75 3.75 7.44365 3.75 12C3.75 16.3035 7.04512 19.8374 11.25 20.2164V14.25H9C8.58579 14.25 8.25 13.9142 8.25 13.5C8.25 13.0858 8.58579 12.75 9 12.75H11.25V10.4914C11.2542 10.1248 11.3262 9.71332 11.475 9.35193C11.6254 8.98683 11.8465 8.65511 12.1257 8.37591C12.4049 8.09671 12.7366 7.87557 13.1017 7.72523C13.4663 7.57511 13.857 7.49857 14.2513 7.5H15.7498C16.164 7.5 16.4998 7.83578 16.4998 8.25C16.4998 8.66421 16.164 9 15.7498 9H14.2467C14.0499 8.99917 13.8548 9.03732 13.6729 9.11225C13.4909 9.18718 13.3255 9.29741 13.1864 9.43657C13.0472 9.57573 12.937 9.74107 12.8621 9.92305C12.795 10.086 12.7528 10.3046 12.75 10.5047V12.75H15C15.4142 12.75 15.75 13.0858 15.75 13.5C15.75 13.9142 15.4142 14.25 15 14.25H12.75V20.2164C16.9549 19.8375 20.25 16.3035 20.25 12C20.25 7.44365 16.5563 3.75 12 3.75Z" fill="#BCBEBD"/>
</svg>
