<svg width="24" height="24" viewBox="0 0 24 24" fill="none" xmlns="http://www.w3.org/2000/svg">
<path fill-rule="evenodd" clip-rule="evenodd" d="M4.07757 3.1304C4.4198 2.89706 4.8864 2.98534 5.11974 3.32757L16.3697 19.8276C16.6031 20.1698 16.5148 20.6364 16.1726 20.8697C15.8303 21.1031 15.3637 21.0148 15.1304 20.6726L3.8804 4.17258C3.64706 3.83034 3.73534 3.36374 4.07757 3.1304Z" fill="#BCBEBD"/>
<path fill-rule="evenodd" clip-rule="evenodd" d="M7.82757 3.1304C8.1698 2.89706 8.6364 2.98534 8.86974 3.32757L20.1197 19.8276C20.3531 20.1698 20.2648 20.6364 19.9226 20.8697C19.5803 21.1031 19.1137 21.0148 18.8804 20.6726L7.6304 4.17258C7.39706 3.83034 7.48534 3.36374 7.82757 3.1304Z" fill="#BCBEBD"/>
<path fill-rule="evenodd" clip-rule="evenodd" d="M20.0045 3.19505C19.698 2.91642 19.2237 2.93901 18.945 3.2455L12.57 10.258C12.2914 10.5645 12.314 11.0388 12.6205 11.3175C12.927 11.5961 13.4013 11.5735 13.6799 11.267L20.0549 4.25451C20.3336 3.94802 20.311 3.47368 20.0045 3.19505ZM11.3795 12.6826C11.073 12.4039 10.5987 12.4265 10.32 12.733L3.94504 19.7455C3.66641 20.052 3.689 20.5263 3.99549 20.805C4.30198 21.0836 4.77632 21.061 5.05495 20.7545L11.4299 13.742C11.7086 13.4355 11.686 12.9612 11.3795 12.6826Z" fill="#BCBEBD"/>
</svg>
